<?xml version="1.0" standalone="no"?>
<!DOCTYPE svg PUBLIC "-//W3C//DTD SVG 20010904//EN"
 "http://www.w3.org/TR/2001/REC-SVG-20010904/DTD/svg10.dtd">
<svg version="1.0" xmlns="http://www.w3.org/2000/svg"
 width="640.000000pt" height="640.000000pt" viewBox="0 0 640.000000 640.000000"
 preserveAspectRatio="xMidYMid meet">
<metadata>
Created by potrace 1.14, written by Peter Selinger 2001-2017
</metadata>
<g transform="translate(0.000000,640.000000) scale(0.100000,-0.100000)"
fill="#000000" stroke="none">
<path d="M2650 6200 c0 -5 21 -38 48 -73 42 -57 58 -87 109 -206 22 -53 27
-124 13 -193 -18 -93 -31 -111 -112 -156 -89 -48 -175 -117 -255 -201 l-60
-63 -54 6 c-30 3 -111 8 -181 12 -89 4 -128 10 -132 19 -2 7 4 64 15 126 10
62 17 114 15 116 -6 6 -44 -92 -65 -167 -12 -40 -26 -77 -32 -81 -6 -3 -52 -9
-103 -13 -190 -14 -273 -32 -374 -81 -52 -25 -93 -48 -90 -50 3 -3 49 5 104
17 78 17 134 21 266 22 100 1 171 -3 176 -9 5 -5 12 -85 15 -178 l6 -167 -40
-25 c-77 -49 -195 -105 -284 -134 -49 -16 -91 -34 -93 -39 -1 -5 14 -24 35
-41 21 -17 34 -31 30 -31 -9 0 -57 30 -75 47 -19 18 -66 24 -172 21 -52 -2
-111 0 -131 5 -39 8 -85 45 -113 90 -9 15 -24 27 -32 27 -21 0 -15 -65 12
-132 23 -59 10 -81 -31 -54 -60 39 -56 -13 9 -113 54 -83 119 -155 221 -244
44 -39 81 -74 83 -78 2 -3 -17 -18 -41 -32 -87 -51 -241 -241 -322 -395 -36
-69 -23 -88 32 -45 56 43 312 168 322 157 5 -5 4 -63 -1 -129 -15 -187 2 -435
38 -550 48 -155 82 -201 70 -97 -8 80 5 95 37 40 14 -24 65 -83 112 -132 48
-49 95 -106 106 -127 10 -21 28 -40 39 -44 21 -7 27 -39 10 -50 -6 -4 -20 -25
-32 -48 -28 -55 -27 -163 2 -240 26 -69 104 -159 188 -217 99 -68 308 -139
412 -140 19 0 81 7 137 17 102 17 103 17 131 -4 36 -26 100 -58 133 -66 36 -9
138 -72 169 -105 15 -15 34 -31 43 -37 22 -12 42 -126 28 -153 -5 -10 -15 -47
-21 -82 -11 -65 -59 -153 -89 -165 -8 -3 -79 24 -157 60 -78 36 -150 65 -159
65 -32 0 3 -27 98 -76 51 -26 99 -51 107 -55 37 -21 182 -84 263 -116 48 -18
123 -50 165 -70 178 -83 284 -128 407 -171 122 -43 137 -46 236 -46 77 -1 110
3 123 13 26 22 6 30 -52 21 -97 -16 -326 48 -560 156 -29 13 -55 24 -57 24 -3
0 -42 18 -87 39 -46 21 -122 56 -170 76 -65 28 -88 42 -88 56 0 10 4 20 9 23
4 3 26 34 47 68 l39 63 0 184 0 183 -25 13 c-14 7 -67 27 -118 44 -52 17 -135
51 -185 75 -124 59 -125 59 -211 42 -96 -20 -192 -20 -247 0 -24 8 -69 20 -99
26 -158 29 -326 171 -370 312 -30 95 18 223 89 237 18 4 36 11 40 16 3 4 23
23 44 41 30 26 46 32 83 32 41 0 52 -6 128 -69 46 -38 100 -95 120 -126 25
-37 44 -55 54 -53 15 3 17 16 13 93 -1 50 -5 110 -7 135 -6 80 1 85 54 41 50
-41 121 -81 146 -81 11 0 3 24 -29 93 -48 102 -70 193 -80 339 -6 90 -5 97 13
107 26 14 140 194 212 334 66 128 85 138 76 40 -4 -38 -12 -83 -17 -101 -18
-57 -3 -58 33 -2 63 100 147 307 169 420 6 33 20 67 30 76 18 16 18 18 2 29
-16 12 -16 21 -4 103 25 177 52 275 64 231 2 -8 14 -45 25 -84 30 -97 51 -205
62 -305 22 -204 64 -391 121 -535 34 -86 188 -399 236 -478 44 -72 39 -85 -53
-145 -35 -23 -64 -46 -64 -51 0 -24 27 -20 103 15 88 41 195 133 264 227 19
26 41 47 50 47 8 0 47 -15 86 -34 83 -40 258 -92 337 -102 l55 -6 17 36 c10
20 22 36 27 36 5 0 43 -7 83 -16 40 -8 87 -12 104 -9 39 7 45 -6 33 -66 -22
-108 -22 -109 -6 -109 9 0 19 5 22 10 3 6 21 10 40 10 l34 0 0 -92 c1 -51 2
-136 3 -189 3 -81 0 -100 -14 -116 -10 -11 -18 -27 -18 -35 0 -25 -84 -123
-165 -191 -85 -73 -151 -110 -295 -165 -148 -57 -186 -69 -345 -101 -211 -43
-284 -68 -297 -100 -15 -40 -27 -135 -32 -269 l-5 -122 25 -13 c15 -8 72 -58
128 -113 94 -92 137 -126 259 -206 40 -25 51 -29 58 -17 5 8 9 17 9 20 0 9
-72 67 -135 109 -27 18 -96 79 -151 134 -98 98 -102 103 -111 160 -14 82 -16
218 -3 265 12 45 0 41 200 62 90 9 119 17 200 54 52 23 124 52 160 63 80 25
127 44 205 84 85 44 114 64 231 168 86 76 109 102 136 158 l33 67 0 162 c1 89
4 166 9 170 4 4 13 1 19 -8 7 -9 28 -39 47 -65 26 -37 35 -45 38 -31 4 18 -25
112 -41 135 -6 8 -5 12 2 12 6 0 11 13 11 28 0 31 40 115 55 116 6 0 12 -13
15 -29 3 -15 10 -30 17 -32 12 -4 55 56 75 105 23 59 31 70 52 75 87 22 112
30 149 46 23 11 71 33 107 49 59 27 168 117 156 129 -3 3 -29 -3 -58 -13 -29
-9 -70 -16 -92 -16 -46 2 -146 45 -147 64 -1 7 -1 27 0 43 1 28 0 28 -9 8 -13
-31 -35 -29 -48 5 -13 35 -22 221 -12 247 5 13 -2 47 -21 100 -16 44 -27 85
-24 92 5 15 47 17 93 4 18 -6 30 -6 27 -1 -7 12 16 27 55 35 61 13 121 44 187
96 70 56 91 85 75 101 -7 7 -27 -4 -64 -36 -76 -67 -160 -105 -250 -112 -79
-7 -158 8 -158 29 0 14 114 77 230 127 41 18 98 43 126 55 92 42 238 87 304
93 57 6 65 10 68 29 2 13 -4 33 -12 45 -30 43 -149 138 -213 170 -35 17 -62
36 -60 42 2 6 25 23 51 37 26 14 54 33 63 41 14 14 10 17 -38 31 -116 33 -179
40 -330 35 -89 -4 -149 -2 -149 4 0 5 9 19 21 31 65 68 114 180 156 357 24
100 26 480 3 520 -14 24 -15 21 -22 -59 -10 -106 -25 -161 -42 -161 -17 0 -26
22 -26 63 0 36 -20 81 -35 78 -5 -1 -17 -30 -25 -64 -18 -72 -34 -101 -105
-183 -75 -88 -105 -112 -163 -134 -74 -28 -162 -25 -162 6 0 7 30 51 67 96
123 153 157 214 186 335 29 118 33 153 17 153 -5 0 -10 -15 -11 -32 0 -41 -41
-149 -60 -161 -10 -6 -30 1 -65 25 -28 19 -73 42 -100 51 -73 23 -238 55 -329
62 -100 9 -118 17 -76 35 21 8 59 11 111 8 44 -3 80 -1 80 4 0 4 -15 8 -34 8
-59 0 -127 13 -123 23 1 5 21 17 43 26 50 21 64 30 64 43 0 8 -39 9 -127 5
-150 -7 -280 -38 -468 -112 -230 -90 -221 -88 -350 -91 -66 -1 -178 -6 -250
-11 -71 -5 -138 -8 -147 -5 -11 3 -19 20 -23 55 -17 122 -79 273 -142 347 -70
81 -193 164 -193 130z m658 -569 c18 -11 5 -19 -98 -63 -129 -55 -240 -92
-250 -82 -9 10 20 108 37 125 23 23 281 40 311 20z m1372 -72 c35 -5 66 -12
69 -15 7 -7 -22 -54 -62 -100 -49 -56 -240 -174 -282 -174 -16 0 -45 4 -63 9
-38 11 -43 5 -6 -9 38 -15 24 -35 -21 -33 -42 3 -85 35 -85 64 0 9 -13 22 -30
29 -37 15 -100 86 -100 112 0 21 43 42 172 83 126 41 286 54 408 34z m-1960
-69 c0 -18 -46 -85 -97 -140 -47 -50 -51 -53 -86 -46 -20 4 -37 11 -37 16 0
21 187 180 212 180 4 0 8 -5 8 -10z m-587 -290 c9 0 17 -6 17 -14 0 -16 -47
-106 -65 -125 -12 -12 -15 -11 -19 10 -21 104 -12 146 29 135 11 -3 28 -6 38
-6z m-433 -626 c9 -9 10 -14 3 -14 -7 0 -15 5 -18 10 -3 6 -15 10 -26 10 -10
0 -19 5 -19 11 0 13 40 2 60 -17z m60 -24 c0 -5 -7 -7 -15 -4 -8 4 -15 8 -15
10 0 2 7 4 15 4 8 0 15 -4 15 -10z m45 -10 c3 -5 2 -10 -4 -10 -5 0 -13 5 -16
10 -3 6 -2 10 4 10 5 0 13 -4 16 -10z m70 -10 c3 -5 -1 -10 -9 -10 -8 0 -18 5
-21 10 -3 6 1 10 9 10 8 0 18 -4 21 -10z m95 -10 c11 -7 0 -9 -35 -8 -35 0
-44 3 -30 9 28 11 47 10 65 -1z m1678 -137 c9 -17 9 -22 -3 -27 -20 -7 -42 33
-24 45 7 4 14 7 15 6 1 -1 6 -12 12 -24z m-459 -365 c16 -35 36 -103 46 -153
22 -114 41 -188 54 -214 6 -11 11 -37 10 -58 l0 -38 -17 24 c-31 45 -63 134
-102 291 -40 155 -46 191 -33 203 11 12 14 9 42 -55z m1075 -114 c59 -203 95
-290 162 -397 l58 -91 9 -117 c12 -151 10 -157 -46 -126 -23 13 -90 39 -147
57 -153 47 -155 48 -170 119 -7 33 -10 68 -6 77 4 9 0 24 -8 33 -18 20 -13 64
27 213 25 93 40 187 53 332 4 44 9 65 16 58 5 -5 29 -76 52 -158z m-650 -559
c14 -38 -32 -255 -55 -255 -12 0 -11 20 1 100 25 158 38 196 54 155z"/>
<path d="M4418 5773 c7 -3 16 -2 19 1 4 3 -2 6 -13 5 -11 0 -14 -3 -6 -6z"/>
<path d="M5122 3894 c10 -10 20 -15 24 -12 3 4 -5 12 -18 18 -22 12 -22 12 -6
-6z"/>
<path d="M5215 3810 c3 -5 8 -10 11 -10 2 0 4 5 4 10 0 6 -5 10 -11 10 -5 0
-7 -4 -4 -10z"/>
<path d="M5245 3780 c3 -5 8 -10 11 -10 2 0 4 5 4 10 0 6 -5 10 -11 10 -5 0
-7 -4 -4 -10z"/>
<path d="M5077 3575 c3 -27 7 -52 9 -54 8 -9 2 65 -6 84 -6 13 -7 2 -3 -30z"/>
<path d="M2997 3315 c-191 -39 -339 -84 -399 -122 -40 -24 -43 -30 -29 -51 7
-11 25 -12 97 -3 49 6 118 8 154 5 47 -5 93 0 167 15 56 11 120 21 143 21 52
0 140 44 140 71 0 13 -12 21 -42 29 -22 7 -51 18 -62 25 -33 21 -96 25 -169
10z"/>
<path d="M1931 2675 c-26 -24 -41 -46 -41 -61 0 -31 28 -32 35 -1 8 30 54 57
95 57 38 0 110 -38 110 -57 0 -8 -13 -19 -29 -24 -66 -23 -58 -111 14 -160 47
-32 105 -49 169 -49 77 0 57 23 -36 43 -95 20 -139 43 -152 79 -16 44 6 60 71
52 51 -6 53 -6 53 18 0 25 -35 62 -100 108 -24 16 -52 25 -91 28 -54 4 -59 2
-98 -33z"/>
<path d="M2590 2549 c-11 -19 -9 -20 17 -17 17 2 29 10 31 21 5 25 -35 22 -48
-4z"/>
<path d="M3659 2517 c-8 -8 -21 -16 -29 -19 -10 -4 -6 -8 13 -13 33 -9 81 9
75 28 -6 18 -43 20 -59 4z"/>
<path d="M5194 2455 c11 -8 25 -15 30 -15 6 0 2 7 -8 15 -11 8 -25 15 -30 15
-6 0 -2 -7 8 -15z"/>
<path d="M4841 2016 c-6 -7 -13 -38 -16 -68 -4 -45 -1 -58 14 -72 34 -31 66
-29 100 4 32 33 53 101 32 108 -6 2 -11 9 -11 17 0 24 -100 34 -119 11z m103
-22 c29 -28 -9 -116 -51 -122 -30 -4 -61 44 -54 83 9 47 73 71 105 39z"/>
<path d="M2460 1664 c-6 -14 -10 -30 -10 -36 0 -21 -65 -146 -110 -210 -26
-37 -88 -111 -138 -165 -240 -259 -322 -363 -338 -428 -4 -17 -14 -41 -24 -55
-21 -32 -100 -205 -100 -220 0 -6 -7 -25 -17 -43 -9 -18 -24 -58 -34 -90 -15
-50 -16 -59 -3 -64 8 -3 17 -4 19 -1 3 2 18 49 35 103 35 113 121 304 156 345
7 8 35 49 61 90 57 87 176 233 277 340 99 104 161 194 212 308 42 93 55 152
34 152 -6 0 -15 -12 -20 -26z"/>
<path d="M3935 1330 c-5 -7 29 -29 155 -98 84 -46 272 -186 317 -236 56 -63
98 -146 107 -211 3 -27 18 -72 33 -100 25 -48 93 -253 93 -281 0 -8 9 -14 20
-14 27 0 26 21 -11 126 -16 49 -41 130 -54 180 -66 254 -85 284 -270 436 -113
93 -373 225 -390 198z"/>
</g>
</svg>
